<?xml version="1.0" encoding="utf-8"?>
<!-- Generator: Adobe Illustrator 16.0.0, SVG Export Plug-In . SVG Version: 6.00 Build 0)  -->
<!DOCTYPE svg PUBLIC "-//W3C//DTD SVG 1.1//EN" "http://www.w3.org/Graphics/SVG/1.1/DTD/svg11.dtd">
<svg version="1.1" id="Слой_1" xmlns="http://www.w3.org/2000/svg" xmlns:xlink="http://www.w3.org/1999/xlink" x="0px" y="0px"
	 width="452px" height="117px" viewBox="0 0 452 117" enable-background="new 0 0 452 117" xml:space="preserve">
<path fill="#FFFFFF" d="M447,0H10H1C0.75,0,0.539,0.139,0.505,0.386c-0.034,0.248,0.12,0.436,0.36,0.504
	C8.448,3.022,9.915,5.471,10,13.075V51c0,2.762,2.239,5,5,5h432c2.762,0,5-2.238,5-5V5C452,2.238,449.762,0,447,0z M451,51
	c0,2.205-1.794,4-4,4H15c-2.206,0-4-1.795-4-4V14.687c0.005-0.509,0.005-0.999,0-1.472V13h-0.005C10.897,6.203,9.622,3.192,4.098,1
	H10h1h436c2.206,0,4,1.794,4,4V51z"/>
<path fill="#FFFFFF" d="M447,61h-27H294H168H42H15c-2.762,0-5,2.238-5,5v46c0,2.762,2.238,5,5,5h27h126h126h126h27
	c2.762,0,5-2.238,5-5V66C452,63.238,449.762,61,447,61z M451,112c0,2.206-1.794,4-4,4h-27H294H168H42H15c-2.206,0-4-1.794-4-4V66
	c0-2.205,1.794-4,4-4h27h126h126h126h27c2.206,0,4,1.795,4,4V112z"/>
</svg>
