<?xml version="1.0" encoding="UTF-8" standalone="no"?>
<!-- Generator: Adobe Illustrator 14.0.0, SVG Export Plug-In . SVG Version: 6.00 Build 43363)  -->

<svg
   xmlns:dc="http://purl.org/dc/elements/1.1/"
   xmlns:cc="http://creativecommons.org/ns#"
   xmlns:rdf="http://www.w3.org/1999/02/22-rdf-syntax-ns#"
   xmlns:svg="http://www.w3.org/2000/svg"
   xmlns="http://www.w3.org/2000/svg"
   xmlns:sodipodi="http://sodipodi.sourceforge.net/DTD/sodipodi-0.dtd"
   xmlns:inkscape="http://www.inkscape.org/namespaces/inkscape"
   version="1.1"
   id="Слой_1"
   x="0px"
   y="0px"
   width="45px"
   height="41px"
   viewBox="0 0 45 41"
   enable-background="new 0 0 45 41"
   xml:space="preserve"
   inkscape:version="0.48.5 r10040"
   sodipodi:docname="menu.svg"><metadata
     id="metadata25"><rdf:RDF><cc:Work
         rdf:about=""><dc:format>image/svg+xml</dc:format><dc:type
           rdf:resource="http://purl.org/dc/dcmitype/StillImage" /></cc:Work></rdf:RDF></metadata><defs
     id="defs23" /><sodipodi:namedview
     pagecolor="#ffffff"
     bordercolor="#666666"
     borderopacity="1"
     objecttolerance="10"
     gridtolerance="10"
     guidetolerance="10"
     inkscape:pageopacity="0"
     inkscape:pageshadow="2"
     inkscape:window-width="640"
     inkscape:window-height="480"
     id="namedview21"
     showgrid="false"
     inkscape:zoom="5.7560976"
     inkscape:cx="22.5"
     inkscape:cy="20.5"
     inkscape:window-x="0"
     inkscape:window-y="0"
     inkscape:window-maximized="0"
     inkscape:current-layer="Слой_1" /><path
     d="M29.659,30.797c0-2.191,0.614-4.009,1.841-5.456c1.227-1.448,2.798-2.17,4.707-2.17c1.913,0,3.493,0.731,4.746,2.195  c1.254,1.463,1.88,3.274,1.88,5.431c0,2.193-0.618,4.012-1.853,5.457c-1.235,1.445-2.811,2.169-4.722,2.169  s-3.489-0.733-4.731-2.196C30.283,34.764,29.659,32.953,29.659,30.797 M42.507,37.582c1.64-1.823,2.456-4.094,2.456-6.813  c0-2.715-0.809-4.978-2.432-6.783c-1.621-1.807-3.713-2.709-6.271-2.709c-2.384,0-4.379,0.807-5.98,2.421  c-1.605,1.614-2.512,3.646-2.723,6.1h-3.732v-8.203h-2.08v18.407h2.08v-8.309h3.732c0.192,2.506,1.078,4.57,2.655,6.19  c1.577,1.622,3.576,2.433,5.995,2.433C38.768,40.316,40.868,39.406,42.507,37.582"
     id="path3"
     style="fill:#ffffff" /><path
     d="M2.023,18.408V3.524l6.706,9.834h0.105l6.705-9.862v14.912h2.078V0h-2.104L8.809,10.045L2.103,0H0v18.408H2.023z"
     id="path5"
     style="fill:#ffffff" /><polygon
     points="43.919,18.408 43.919,16.515 23.82,16.515 23.82,10.07 43.919,10.07 43.919,8.18 23.82,8.18 23.82,1.893   43.788,1.893 43.788,0 21.743,0 21.743,18.408 "
     id="polygon7"
     style="fill:#ffffff" /><polygon
     points="2.078,40 2.078,31.716 15.541,31.716 15.541,40 17.618,40 17.618,21.593 15.541,21.593 15.541,29.771 2.078,29.771   2.078,21.593 0,21.593 0,40 "
     id="polygon9"
     style="fill:#ffffff" /><path
     d="M-3.479,83.834v-8.4h0.948v5.017l4.824-5.017h1.224l-3.6,3.673l3.756,4.728H2.485l-3.228-4.068l-1.788,1.813v2.256H-3.479z"
     id="path11"
     style="fill:#ffffff" /><path
     d="M12.133,82.7c-0.808,0.852-1.836,1.277-3.084,1.277s-2.272-0.424-3.072-1.271s-1.199-1.872-1.199-3.072  c0-1.191,0.403-2.214,1.212-3.065c0.808-0.853,1.836-1.278,3.084-1.278s2.271,0.424,3.071,1.271c0.8,0.849,1.2,1.872,1.2,3.072  C13.345,80.826,12.94,81.848,12.133,82.7z M6.703,82.094c0.628,0.672,1.418,1.008,2.37,1.008c0.951,0,1.737-0.334,2.357-1.002  s0.931-1.489,0.931-2.466c0-0.968-0.314-1.788-0.942-2.46s-1.418-1.008-2.37-1.008S7.311,76.5,6.691,77.168  c-0.62,0.668-0.931,1.49-0.931,2.466C5.761,80.602,6.075,81.422,6.703,82.094z"
     id="path13"
     style="fill:#ffffff" /><path
     d="M-3.479,93.098v-8.4h0.948v3.732h5.255v-3.732h0.948v8.4H2.725v-3.78h-5.255v3.78H-3.479z"
     id="path15"
     style="fill:#ffffff" /><path
     d="M5.354,93.098v-8.4h7.554v0.864H6.302v2.868h6.667v0.864H6.302v2.939h6.667v0.864H5.354z"
     id="path17"
     style="fill:#ffffff" /><path
     d="M13.429,104.682v-1.872H-3.479v-8.4h0.948v7.536h14.855v-7.536h0.948v7.536h1.092l-0.144,2.736H13.429z"
     id="path19"
     style="fill:#ffffff" /></svg>