<?xml version="1.0" encoding="utf-8"?>
<!-- Generator: Adobe Illustrator 14.0.0, SVG Export Plug-In . SVG Version: 6.00 Build 43363)  -->
<!DOCTYPE svg PUBLIC "-//W3C//DTD SVG 1.1//EN" "http://www.w3.org/Graphics/SVG/1.1/DTD/svg11.dtd">
<svg version="1.1" id="Слой_1" xmlns="http://www.w3.org/2000/svg" xmlns:xlink="http://www.w3.org/1999/xlink" x="0px" y="0px"
	 width="37px" height="61px" viewBox="0 0 37 61" enable-background="new 0 0 37 61" xml:space="preserve">
<title>the-end</title>
<desc>Created using Figma</desc>
<g>
	<polygon fill="#1F1E21" points="2,12.436 5.535,8.769 12.068,16.998 14.47,16.998 6.871,7.433 14.154,0 11.676,0 2,10.151 2,0 0,0 
		0,16.997 0,17 2,17 	"/>
	<polygon fill="#1F1E21" points="2,29 13,29 13,37 15,37 15,20 13,20 13,27 2,27 2,20 0,20 0,37 2,37 	"/>
	<polygon fill="#1F1E21" points="34,22 34,20 20,20 18,20 18,22 18,27 18,29 18,35 18,37 20,37 34,37 34,35 20,35 20,29 33,29 
		33,27 20,27 20,22 	"/>
	<polygon fill="#1F1E21" points="34,55 34,40 32,40 32,55 2,55 2,40 0,40 0,55 0,57 35,57 33,61 35,61 37,57 37,55 	"/>
	<path fill="#1F1E21" d="M26,17c4.972,0,9-3.806,9-8.5S30.971,0,26,0c-4.971,0-9,3.806-9,8.5S21.029,17,26,17z M26,1.7
		c4.025,0,7.3,3.05,7.3,6.8s-3.273,6.8-7.3,6.8c-4.025,0-7.3-3.05-7.3-6.8S21.975,1.7,26,1.7z"/>
</g>
</svg>
